<svg width="338" height="201" fill="none" xmlns="http://www.w3.org/2000/svg"><path d="M327 91.5c0 21.067-11.266 40.947-31.075 55.926C276.11 162.411 248.242 172 217 172c-31.242 0-59.11-9.589-78.925-24.574C118.266 132.447 107 112.567 107 91.5s11.266-40.947 31.075-55.926C157.89 20.589 185.758 11 217 11c31.242 0 59.11 9.59 78.925 24.574C315.734 50.553 327 70.433 327 91.5z" stroke="#F2F2F2" stroke-width="22"/><path d="M307 109.5c0 22.254-15.471 43.504-42.866 59.521C236.883 184.953 198.843 195 156.5 195s-80.383-10.047-107.634-25.979C21.471 153.004 6 131.754 6 109.5c0-22.254 15.47-43.504 42.866-59.52C76.116 34.046 114.157 24 156.5 24s80.383 10.047 107.634 25.98C291.529 65.996 307 87.245 307 109.5z" stroke="#F2F2F2" stroke-width="12"/></svg>