<svg width="27" height="24" fill="none" xmlns="http://www.w3.org/2000/svg"><path fill-rule="evenodd" clip-rule="evenodd" d="M12.894 23.578C7.117 24.51-.979 7.393.097 6.396c1.076-.996 4.55 5.187 7.045 4.89 2.496-.295 16.065-11.983 18.923-9.302 2.858 2.68-7.393 20.663-13.17 21.594z" fill="url(#paint0_linear)"/><path opacity=".57" fill-rule="evenodd" clip-rule="evenodd" d="M12.033 22.779C7.177 23.562.373 9.17 1.277 8.332c.904-.838 3.824 4.361 5.921 4.112 2.098-.249 13.503-10.076 15.905-7.822 2.403 2.254-6.214 17.374-11.07 18.157z" fill="#fff"/><path opacity=".452" fill-rule="evenodd" clip-rule="evenodd" d="M13.128 22.669C7.351 23.6-.745 6.484.331 5.487c1.076-.996 4.55 5.187 7.045 4.89C9.87 10.083 23.44-1.605 26.299 1.076c2.858 2.68-7.394 20.663-13.17 21.594z" fill="url(#paint1_linear)"/><path opacity=".452" fill-rule="evenodd" clip-rule="evenodd" d="M13.336 21.994C7.559 22.924-.537 5.808.539 4.812c1.076-.997 4.55 5.186 7.045 4.89C10.079 9.406 23.649-2.28 26.507.4c2.858 2.68-7.394 20.663-13.171 21.595z" fill="url(#paint2_linear)"/><defs><linearGradient id="paint0_linear" x1="13.279" y1="1.585" x2="13.279" y2="23.615" gradientUnits="userSpaceOnUse"><stop stop-color="#6B3BD8"/><stop offset="1" stop-color="#2BBDEF"/></linearGradient><linearGradient id="paint1_linear" x1="13.513" y1=".676" x2="13.513" y2="22.706" gradientUnits="userSpaceOnUse"><stop stop-color="#6B3BD8"/><stop offset="1" stop-color="#2BBDEF"/></linearGradient><linearGradient id="paint2_linear" x1="13.721" y1="0" x2="13.721" y2="22.03" gradientUnits="userSpaceOnUse"><stop stop-color="#6B3BD8"/><stop offset="1" stop-color="#2BBDEF"/></linearGradient></defs></svg>