<svg width="14" height="14" fill="none" xmlns="http://www.w3.org/2000/svg"><path d="M4.368 13.678c.293 0 .533-.112.885-.422l2.296-1.998h3.428c1.817 0 2.994-1.184 2.994-2.994v-4.77c0-1.81-1.177-2.994-2.994-2.994H3.764C1.948.5.77 1.684.77 3.494v4.77c0 1.81 1.295 2.994 2.819 2.994h.093v1.67c0 .463.264.75.686.75zm.117-6.739a1.06 1.06 0 110-2.12c.586 0 1.055.474 1.055 1.06 0 .58-.469 1.06-1.055 1.06zm2.895 0a1.06 1.06 0 110-2.122 1.06 1.06 0 010 2.122zm2.894 0c-.586 0-1.055-.48-1.055-1.06 0-.586.47-1.06 1.055-1.06a1.06 1.06 0 110 2.121z" fill="#659DEA"/></svg>