<svg width="43" height="43" fill="none" xmlns="http://www.w3.org/2000/svg"><path d="M16.06 37.905c-.404-.135-.718-.135-.897-.135l-.224.45c.18-.09.538-.225.941-.09.673.224.942.808.763 1.571l-.18-.045a5.615 5.615 0 01-1.345-.539l-.18.54c.539.089.942.179 1.39.314l.18.044c-.269.853-.852 1.213-1.57.988-.582-.18-.806-.718-.806-.718l-.18.628s.36.225.897.405c1.121.359 2.063-.09 2.421-1.213.404-1.032-.09-1.886-1.21-2.2zm-11.791-8.8a.756.756 0 01-.762.763.756.756 0 01-.762-.763c0-.45.313-.764.762-.764.403 0 .762.36.762.764zm35.641-.09a.756.756 0 01-.762.763.756.756 0 01-.762-.763c0-.404.314-.764.762-.764s.762.36.762.764zm-15.69-6.421c.044.404.044.808.044 1.886 0 1.167 0 1.661-.045 2.02h.852c-.045-.404-.045-.853-.045-2.02 0-1.078 0-1.527.045-1.886h-.852zm1.613 2.874c0 .718.538 1.122 1.435 1.122.941 0 1.48-.404 1.48-1.167 0-.494-.27-.808-.763-.988.404-.135.628-.449.628-.898 0-.674-.493-1.033-1.3-1.033-.852 0-1.345.404-1.345 1.078 0 .449.224.718.627.898-.493.135-.762.494-.762.988zm1.435-2.605c.358 0 .583.27.583.719 0 .449-.224.718-.538.718-.359 0-.583-.27-.583-.718 0-.45.18-.719.538-.719zm0 1.797c.403 0 .672.314.672.808 0 .494-.224.763-.627.763-.404 0-.673-.314-.673-.808 0-.45.224-.763.628-.763zm1.972.808c0 .718.539 1.122 1.435 1.122.942 0 1.48-.404 1.48-1.167 0-.494-.27-.808-.763-.988.404-.135.628-.449.628-.898 0-.674-.493-1.033-1.3-1.033-.852 0-1.345.404-1.345 1.078 0 .449.224.718.628.898-.494.135-.762.494-.762.988zm1.435-2.605c.359 0 .583.27.583.719 0 .449-.224.718-.538.718-.359 0-.583-.27-.583-.718 0-.45.224-.719.538-.719zm0 1.797c.404 0 .673.314.673.808 0 .494-.225.763-.628.763-.404 0-.628-.314-.628-.808-.045-.45.224-.763.583-.763zm3.721-.674c-.448 0-.717.18-.897.404.045-.898.27-1.482.897-1.482.493 0 .762.494.762.494v-.718s-.269-.135-.807-.135c-.986 0-1.659.764-1.659 2.11 0 1.348.538 1.976 1.48 1.976.852 0 1.39-.539 1.39-1.392-.045-.808-.449-1.257-1.166-1.257zm-.18 2.2c-.403 0-.672-.314-.672-1.392.135-.18.359-.359.628-.359.403 0 .628.27.628.808-.045.629-.225.943-.583.943z" fill="#fff"/><path d="M31.661 11.19c-5.514-5.568-14.436-5.568-19.905 0-2.69 2.693-4.035 6.196-4.125 9.743v.314c0 1.212.135 2.425.449 3.682 1.972 7.633 9.638 12.213 17.17 10.237a13.915 13.915 0 008.25-6.061h-.045c-1.704 2.47-4.215 4.355-7.308 5.163-6.86 1.796-13.898-2.38-15.691-9.34-.359-1.346-.449-2.648-.404-3.95h.583c-.045 1.077.09 2.155.359 3.232 1.614 6.242 7.89 9.968 14.077 8.352a11.336 11.336 0 005.604-3.457c-1.838 1.75-4.349 2.873-7.084 2.873-2.958 0-5.604-1.257-7.486-3.277l-.09-.09c-.045-.045-.045-.09-.09-.09-1.076-1.212-1.883-2.65-2.286-4.355a11.011 11.011 0 01-.314-3.188h.673a9.175 9.175 0 00.269 2.694c1.21 4.804 6.052 7.678 10.804 6.42a8.603 8.603 0 002.286-.987h-.179a7.715 7.715 0 01-3.049.628c-4.259 0-7.666-3.457-7.666-7.768 0-.359.045-.673.09-1.032H35.83a14.837 14.837 0 00-4.17-9.744zM12.07 20.572c.269-1.436.941-2.828 2.017-3.906a7.407 7.407 0 0110.58 0 7.355 7.355 0 011.66 2.604L12.07 20.573zM26.954 15.5a8.759 8.759 0 00-12.508 0 8.61 8.61 0 00-2.466 5.118l-2.286.18a10.554 10.554 0 012.914-6.062 10.245 10.245 0 0114.615 0c1.21 1.213 2.017 2.694 2.51 4.221l-.672.045c-.404-1.302-1.076-2.514-2.107-3.502zm5.514 3.188a11.401 11.401 0 00-3.004-5.343 11.515 11.515 0 00-16.408 0c-2.062 2.065-3.138 4.714-3.362 7.453l-1.345.135-.718.045c.18-3.099 1.39-6.152 3.721-8.487a12.786 12.786 0 0118.202 0c1.749 1.752 2.87 3.907 3.407 6.197h-.493zM5.12 31.395c.942-.719 1.929-.494 2.601.449.314.449.493.853.493.853l-.538.404s.18-.539-.18-1.033c-.447-.584-1.165-.628-1.927-.045-.717.539-.897 1.212-.448 1.841.403.539.852.584.852.584l-.314.314s-.449-.18-.897-.853c-.628-.898-.538-1.886.359-2.514zm4.215 4.714c-.717.763-.986 1.033-1.21 1.302l-.538-.539c.269-.224.582-.494 1.3-1.257l.941-.943-1.076-1.077-.941.943c-.718.763-.987 1.032-1.21 1.302l-.539-.54c.27-.224.583-.493 1.3-1.256.673-.674.897-.943 1.121-1.213l2.107 2.11c-.313.225-.582.494-1.255 1.168zm2.197 2.47c-.404.583-1.121.628-1.749.18-.627-.45-.852-1.123-.09-2.156.718-1.033 1.346-1.123 2.287-.584l.403.225c.225.135.404.135.404.135l-.404.583-.762-.494c-.672-.449-1.076-.404-1.569.225.359-.18.807-.135 1.21.18.539.448.673 1.122.27 1.706zm-.583-.45c.314-.448.314-.852.045-1.077-.27-.224-.718-.09-.987.36-.313.448-.313.852-.044 1.077.269.224.672.09.986-.36zm3.901.001c-.36-.405-.673-.54-1.121-.764l-.09-.045-.583 1.213c-.448.943-.628 1.302-.717 1.661l-.673-.36c.18-.269.359-.673.852-1.57.404-.854.583-1.213.672-1.527l1.928.943-.269.449zm5.469.628l-.045.494c-.359-.224-.628-.27-.897-.314h-.09l-.179 1.347c-.134 1.033-.179 1.437-.179 1.796l-.762-.09c.09-.314.134-.763.269-1.796l.18-1.347h-.09a1.935 1.935 0 00-.987.09l.045-.494 2.735.314zm3.362 0c-.314.494-.448 1.033-.807 1.93-.448 1.078-.717 1.617-1.434 1.617-.27 0-.404-.09-.404-.09v-.583s.224.224.493.224c.224 0 .404-.134.538-.314l-1.255-2.02c-.135-.27-.224-.36-.493-.719h.896c.09.36.135.494.449.988l.717 1.122c.045-.09.09-.224.135-.314.358-.988.448-1.302.448-1.84h.717zm1.121.674l.27-.045-.27 1.033.673.808-.27.045-.851-.764.448-1.077zm.762-.18l.27-.045-.27 1.033.673.808-.27.045-.851-.763.448-1.078zm4.349 1.213l-.807.314c-.135-.36-.224-.494-.673-.988l-1.165-1.302-.045 1.706c0 .629 0 .853.09 1.212l-.583.225c.045-.404.045-.539.09-1.302l.134-2.47.314-.134.18-.045 1.747 2.02c.314.36.449.45.718.764zm2.017-3.233c.583.987.27 2.02-.717 2.604-.493.314-.897.404-.897.404l-.314-.539s.538.225 1.076-.09c.628-.404.762-1.077.314-1.886l-.18.09c-.447.27-.761.494-1.165.853l-.269-.449c.538-.224.852-.359 1.3-.628l.135-.09c-.448-.629-1.076-.853-1.659-.449-.538.314-.583.853-.583.853l-.314-.404s.18-.404.807-.763c.987-.629 1.928-.45 2.466.494zm1.3-3.188l.314.404a2.53 2.53 0 00-.852.449l-.09.09.853 1.032c.672.809.94 1.123 1.165 1.347l-.583.494c-.18-.314-.448-.628-1.076-1.437l-.852-1.032-.09.045c-.223.224-.403.404-.627.763l-.314-.404 2.152-1.751zm3.452-1.437c.763.673 1.076.943 1.39 1.122l-.493.584c-.224-.27-.538-.539-1.3-1.212l-.762-.674 1.031 3.098-.493.54c-.224-.27-.493-.495-1.21-1.123-.763-.674-1.077-.943-1.39-1.123l.493-.584c.224.27.538.54 1.3 1.213l.762.673-1.031-3.098.493-.539c.224.27.493.494 1.21 1.123zm1.48.045l-.135.224-.538-.943-1.03-.09.134-.224 1.12-.045.449 1.078zm.403-.674l-.134.225-.538-.943-1.031-.09.134-.225 1.121-.044.448 1.077zM2.341 23.851c.897-.18 1.3-.27 1.614-.359l.09.674c-.314 0-.672.09-1.57.269l-1.165.225.27 1.391 1.165-.224c.896-.18 1.255-.27 1.569-.36l.18.674c-.315 0-.718.09-1.615.27-.851.18-1.165.224-1.434.359l-.538-2.65c.269-.044.627-.09 1.434-.269zm.987-2.963h.538v1.032c0 .315.044.988.044.988-.313-.045-.672-.045-1.614 0-.851.045-1.21.045-1.479.09l-.09-1.93h.449c-.135.448-.135.763-.135 1.212v.09l1.031-.045c0-.404-.045-.629-.134-.988h.493c-.09.404-.09.628-.09.988l1.21-.045v-.18c0-.449-.044-.808-.223-1.212zm-1.614-2.694c.627.045.941.494.896 1.392v.224c.583.045.942.045 1.256 0l-.045.719c-.314-.045-.673-.09-1.614-.135-.852-.045-1.166-.045-1.48-.045l.045-1.078c.045-.718.359-1.077.942-1.077zm0 .673c-.404-.045-.628.18-.673.584v.27l1.3.09v-.18c.045-.494-.18-.764-.627-.764zm1.927-2.963c.583.135.807.628.628 1.482l-.09.359-.09.628c-.313-.09-.672-.18-1.569-.359-.851-.18-1.165-.224-1.479-.27l.224-1.122c.135-.718.448-1.032.897-.943.358.09.627.36.583.853.179-.538.493-.673.896-.628zm-2.196 1.302l1.03.224.045-.224c.09-.449-.044-.674-.448-.763-.314-.045-.538.09-.583.494l-.045.269zm2.107-.629c-.404-.09-.673.18-.763.674l-.044.224 1.165.225.045-.225c.09-.494-.045-.853-.403-.898zm.762-4.175c-.762-.36-1.076-.54-1.345-.674l-.314.629c.269.09.583.224 1.39.583.852.404 1.165.584 1.434.719l.314-.629c-.269-.09-.627-.224-1.48-.628zm.134 1.122c-.538-.224-.941.045-1.21.719l-.135.359c-.538-.225-.851-.36-1.12-.494l-.27.628c.314.09.628.225 1.525.584.807.314 1.12.45 1.345.629l.224-.629.045-.18c.359-.808.18-1.391-.404-1.616zm.18 1.527l-.09.134-1.21-.493.09-.225c.179-.404.448-.494.806-.36.449.18.583.495.404.944zm1.569-5.658c.762.539 1.12.763 1.39.898l-.404.539c-.224-.225-.538-.404-1.3-.943l-.762-.494 1.255 2.65-.314.583c-.224-.224-.538-.449-1.255-.898-.762-.539-1.076-.718-1.345-.853l.404-.584c.224.225.538.404 1.3.943l.762.494-1.255-2.65.358-.538c.18.18.493.36 1.166.853zm-3.138.539l.313-.449s.36.27.583-.045c.224-.314-.18-.539-.18-.539l.315-.449s.493.494.09 1.123c-.494.628-1.121.359-1.121.359zm6.59-4.131c.717.764.583 1.706-.18 2.425-.403.36-.717.539-.717.539l-.403-.45s.538.09.941-.269c.493-.449.493-1.122-.045-1.706l-.134.135c-.359.314-.583.583-.897.943l-.314-.36a8.868 8.868 0 001.031-.808l.135-.09c-.538-.493-1.076-.538-1.57-.09-.403.36-.403.899-.403.899l-.313-.315s.09-.404.582-.808c.762-.763 1.66-.763 2.287-.045zm3.497-.269l-.718.404c-.179-.27-.269-.36-.807-.719l-1.3-.898.359 1.527c.135.539.18.719.314 1.033l-.448.314c-.045-.36-.09-.494-.225-1.122l-.448-2.2.269-.18.135-.09 1.972 1.392c.404.27.583.36.897.539zm1.748-1.347l.224.449s-.762.314-.941.404c-.18.09-.897.404-.897.404-.09-.314-.224-.629-.627-1.482-.36-.808-.494-1.077-.673-1.347l1.748-.808.18.404c-.493.045-.762.135-1.166.314l-.045.09.449.988c.358-.18.538-.27.851-.494l.18.45c-.359.089-.583.179-.942.313l.493 1.123.135-.045c.448-.27.762-.449 1.031-.763zm.135-2.829c.044.314.134.629.403 1.437.27.898.359 1.257.493 1.526l-.672.225c-.045-.314-.135-.673-.404-1.572-.269-.808-.358-1.167-.493-1.436l.673-.18zm2.959 2.47l-.942.224-1.569-1.257.403-.808c.225-.45.314-.674.36-.988l.627-.18s-.27.404-.493.853l-.404.764.673.538c.538.36.851.63 1.345.854zm1.39-3.413l.09.45c-.36-.09-.628-.09-.853-.046h-.09l.18 1.213c.135.942.224 1.302.314 1.616l-.673.135c0-.315-.044-.674-.224-1.617l-.18-1.212h-.089c-.269.045-.493.135-.807.314l-.09-.449 2.422-.404zm2.734.763c0 .674-.403 1.033-1.3 1.033h-.224c0 .629.045.943.09 1.257l-.673.045c.045-.314.045-.718 0-1.661-.045-.853-.045-1.212-.09-1.527l1.076-.045c.718.045 1.121.315 1.121.898zm-.628.045c0-.404-.224-.628-.672-.628h-.27l.046 1.302h.18c.537.045.761-.225.716-.674zm.807.629c.135-1.033.852-1.571 1.883-1.437.942.135 1.48.808 1.345 1.796-.134 1.033-.852 1.572-1.883 1.437-.986-.135-1.48-.808-1.345-1.796zm2.51.36c.09-.854-.178-1.393-.761-1.482-.583-.09-.986.359-1.076 1.167-.09.853.18 1.392.762 1.482.538.09.986-.36 1.076-1.168zm3.319-.764l-.135.449a3.186 3.186 0 00-.762-.404l-.09-.045-.313 1.167c-.27.898-.36 1.257-.404 1.572l-.672-.18c.134-.27.224-.628.493-1.571l.314-1.168-.09-.045c-.27-.09-.493-.09-.897-.045L25.7.727l2.42.719zm1.165 3.323l-.18.493s-.672-.314-.896-.404c-.18-.09-.986-.404-.986-.404.134-.27.314-.628.672-1.482.314-.808.449-1.122.538-1.391l1.749.763-.18.449c-.358-.314-.627-.45-1.03-.629l-.09-.045-.359.943c.359.135.583.225.942.315l-.18.449c-.314-.225-.538-.315-.852-.494l-.448 1.122.134.045c.404.225.763.314 1.166.27z" fill="#fff"/><path d="M31.347 6.565l-.717-.45c.09-.314.045-.448.045-.987v-.45l-.359.18c-.448.225-.582.36-.807.584l-.582-.314s.358-.135.762-.315l.986-.449-.045-1.122c0-.45-.09-.808-.09-.808l.718.404c-.09.314-.09.494-.045.988v.359l.269-.135c.448-.224.628-.36.852-.584l.493.315s-.314.134-.762.314l-.897.404.045 1.212c.045.54.134.854.134.854zm3.093.449c-.582.718-.85 1.032-.985 1.302l-.494-.45c.225-.224.449-.448.942-1.122l-1.12-.898c-.539.674-.718.943-.853 1.168l-.538-.405c.224-.224.449-.493 1.031-1.257.538-.673.718-.943.897-1.212l.538.449c-.18.18-.403.449-.852.988l1.121.898c.448-.584.628-.808.807-1.078l.538.45c-.269.224-.493.493-1.031 1.167zm2.422 2.649c-.717.628-1.031.898-1.21 1.122l-.404-.539c.269-.18.538-.404 1.255-1.032l.673-.584-2.87.539-.448-.494c.27-.18.538-.404 1.21-.943.718-.629.987-.853 1.166-1.078l.449.54c-.27.179-.538.403-1.256 1.032l-.672.584 2.869-.54.404.495c-.27.134-.538.359-1.166.898zm1.479 2.379c-.807.494-1.12.674-1.39.898l-.313-.628c.269-.135.538-.27 1.165-.674a2.685 2.685 0 01-.627-.628c-.314-.54-.18-.898.269-1.168.403-.224.672-.404.896-.628l.359.583a5.738 5.738 0 00-.897.494c-.313.18-.403.404-.224.719.135.224.314.404.449.494.717-.45.986-.63 1.21-.809l.359.584c-.27.135-.538.314-1.256.763zm.089 3.008l-.447.225s-.314-.763-.404-.988c-.09-.224-.404-.898-.404-.898.314-.09.628-.224 1.48-.628.762-.36 1.076-.494 1.345-.674l.762 1.796-.403.18c-.045-.494-.135-.763-.314-1.168l-.045-.09-.941.45c.179.359.269.538.493.853l-.449.18c-.09-.405-.134-.584-.314-.944l-1.075.494.044.135c.18.45.359.808.673 1.078zm1.032-.359c1.031-.269 1.793.315 2.017 1.303.135.494.09.853.09.853l-.583.134s.314-.404.18-.942c-.18-.674-.762-.943-1.57-.719-.762.18-1.165.719-.986 1.392.135.584.493.763.493.763l-.358.135s-.314-.314-.449-1.033c-.224-.853.18-1.66 1.166-1.886zm2.376 3.369c-.314 0-.628.044-1.48.134-.94.09-1.3.18-1.569.224l-.134-.718c.314 0 .717-.045 1.659-.135.852-.09 1.165-.135 1.48-.224l.044.718zm-2.87 2.469l-.044-.943 1.48-1.347.672.538c.403.315.583.45.897.54l.09.673s-.36-.36-.763-.629l-.672-.584-.628.584c-.493.494-.762.764-1.031 1.168z" fill="#fff"/><path d="M40.538 23.178c-.941-.045-1.345-.045-1.614 0l.045-.719c.314.045.672.09 1.614.09l.897.045-2.466-1.572v-.673c.314.045.672.09 1.524.09.942.045 1.3.045 1.614 0v.718c-.314-.045-.672-.09-1.614-.09l-.897-.044 2.466 1.571v.673c-.403-.044-.717-.044-1.569-.09zm-.583 3.232c-.896-.179-1.3-.269-1.614-.269l.18-.673c.313.09.672.18 1.569.359l.896.18-2.196-1.931.09-.674c.268.09.627.18 1.479.314.896.18 1.3.225 1.569.27l-.135.673c-.313-.09-.672-.18-1.569-.359l-.896-.18 2.196 1.931-.134.629c-.27-.045-.583-.135-1.435-.27zm2.69-1.796l-.09.54s-.448-.09-.493.269c-.09.359.404.449.404.449l-.09.539s-.672-.225-.538-1.033c.09-.764.807-.764.807-.764z" fill="#fff"/></svg>