<svg width="34" height="20" fill="none" xmlns="http://www.w3.org/2000/svg"><path fill-rule="evenodd" clip-rule="evenodd" d="M29.262 12.613c1.128 1.101 2.318 2.138 3.33 3.35.446.538.87 1.094 1.193 1.72.459.888.043 1.866-.753 1.919l-4.954-.002c-1.277.106-2.296-.409-3.153-1.282-.686-.699-1.321-1.442-1.98-2.164-.27-.295-.554-.573-.892-.792-.676-.44-1.263-.305-1.65.4-.393.718-.482 1.512-.52 2.311-.054 1.167-.406 1.473-1.578 1.527-2.504.118-4.88-.261-7.088-1.524-1.946-1.114-3.455-2.686-4.769-4.465C3.891 10.145 1.932 6.337.172 2.423c-.397-.882-.107-1.355.866-1.372a130.69 130.69 0 014.85-.002c.656.01 1.091.386 1.345 1.006.874 2.15 1.944 4.195 3.287 6.09.357.505.722 1.01 1.24 1.365.575.394 1.013.263 1.283-.376.171-.406.247-.843.285-1.278.128-1.495.145-2.987-.08-4.477-.137-.93-.661-1.532-1.589-1.708-.473-.09-.403-.265-.174-.536.399-.466.773-.756 1.52-.756h5.597c.882.174 1.077.57 1.198 1.457l.005 6.218c-.01.343.171 1.362.79 1.589.495.162.82-.234 1.118-.548 1.34-1.422 2.296-3.104 3.151-4.844.38-.766.705-1.56 1.021-2.355.235-.59.602-.88 1.266-.866l5.387.004c.16 0 .322.003.477.03.907.154 1.156.544.876 1.43-.442 1.392-1.301 2.55-2.142 3.715-.898 1.244-1.86 2.444-2.75 3.695-.82 1.142-.754 1.717.263 2.71z" fill="url(#paint0_linear)"/><defs><linearGradient id="paint0_linear" x1="17" y1=".379" x2="17" y2="19.62" gradientUnits="userSpaceOnUse"><stop stop-color="#6546DA"/><stop offset="1" stop-color="#59B5EE"/></linearGradient></defs></svg>