<svg width="18" height="34" fill="none" xmlns="http://www.w3.org/2000/svg"><path d="M.961 18.108h3.727v15.344c0 .303.245.548.548.548h6.32a.548.548 0 00.548-.548V18.18h4.284a.55.55 0 00.545-.486l.65-5.649a.548.548 0 00-.544-.61h-4.935V7.893c0-1.067.575-1.608 1.708-1.608h3.227a.548.548 0 00.548-.549V.552a.548.548 0 00-.548-.548h-4.447A4.36 4.36 0 0012.39 0c-.772 0-3.454.151-5.572 2.1C4.47 4.26 4.797 6.846 4.875 7.295v4.14H.96a.548.548 0 00-.548.548v5.577c0 .303.245.548.548.548z" fill="url(#paint0_linear)"/><defs><linearGradient id="paint0_linear" x1="9" y1="0" x2="9" y2="34" gradientUnits="userSpaceOnUse"><stop stop-color="#6546DA"/><stop offset="1" stop-color="#59B5EE"/></linearGradient></defs></svg>