<svg width="14" height="10" fill="none" xmlns="http://www.w3.org/2000/svg"><path d="M1.496 2.068c.55 0 1.002-.45 1.002-1.002A1.01 1.01 0 001.496.06 1.01 1.01 0 00.494 1.066c0 .551.451 1.002 1.002 1.002zm3.053-.275h7.869a.723.723 0 00.727-.727.719.719 0 00-.727-.726h-7.87a.72.72 0 00-.726.726.72.72 0 00.727.727zM1.496 5.777c.55 0 1.002-.45 1.002-1.002 0-.55-.451-1.002-1.002-1.002-.55 0-1.002.452-1.002 1.002 0 .551.451 1.002 1.002 1.002zm3.053-.275h7.869a.719.719 0 00.727-.727.719.719 0 00-.727-.726h-7.87a.72.72 0 00-.726.726.72.72 0 00.727.727zm-3.053 3.99c.55 0 1.002-.451 1.002-1.002a1.01 1.01 0 00-1.002-1.008A1.01 1.01 0 00.494 8.49c0 .551.451 1.002 1.002 1.002zm3.053-.275h7.869a.723.723 0 00.727-.727.72.72 0 00-.727-.726h-7.87a.72.72 0 00-.726.726.72.72 0 00.727.727z" fill="#000"/></svg>