<svg width="238" height="208" fill="none" xmlns="http://www.w3.org/2000/svg"><path fill-rule="evenodd" clip-rule="evenodd" d="M113.66 207.677C62.735 215.879-8.63 65.117.856 56.339c9.486-8.778 40.102 45.684 62.1 43.077C84.953 96.809 204.565-6.137 229.76 17.474c25.194 23.611-65.174 182.002-116.1 190.203z" fill="url(#paint0_linear)"/><path opacity=".57" fill-rule="evenodd" clip-rule="evenodd" d="M106.07 200.635C63.266 207.531 3.284 80.771 11.257 73.39c7.973-7.381 33.706 38.411 52.195 36.219 18.489-2.192 119.024-88.75 140.2-68.897 21.176 19.852-54.779 153.027-97.582 159.923z" fill="#fff"/><path opacity=".452" fill-rule="evenodd" clip-rule="evenodd" d="M115.722 199.668C64.796 207.87-6.568 57.108 2.918 48.33c9.485-8.778 40.102 45.684 62.1 43.077C87.013 88.8 206.626-14.146 231.82 9.465c25.194 23.611-65.173 182.002-116.099 190.203z" fill="url(#paint1_linear)"/><path opacity=".452" fill-rule="evenodd" clip-rule="evenodd" d="M117.555 193.719C66.629 201.921-4.735 51.159 4.751 42.381c9.485-8.779 40.102 45.683 62.099 43.076C88.847 82.85 208.46-20.095 233.654 3.516c25.194 23.611-65.173 182.001-116.099 190.203z" fill="url(#paint2_linear)"/><defs><linearGradient id="paint0_linear" x1="117.053" y1="13.958" x2="117.053" y2="208" gradientUnits="userSpaceOnUse"><stop stop-color="#6B3BD8"/><stop offset="1" stop-color="#2BBDEF"/></linearGradient><linearGradient id="paint1_linear" x1="119.114" y1="5.949" x2="119.114" y2="199.991" gradientUnits="userSpaceOnUse"><stop stop-color="#6B3BD8"/><stop offset="1" stop-color="#2BBDEF"/></linearGradient><linearGradient id="paint2_linear" x1="120.947" y1="0" x2="120.947" y2="194.042" gradientUnits="userSpaceOnUse"><stop stop-color="#6B3BD8"/><stop offset="1" stop-color="#2BBDEF"/></linearGradient></defs></svg>