<svg width="64" height="57" fill="none" xmlns="http://www.w3.org/2000/svg"><path fill-rule="evenodd" clip-rule="evenodd" d="M30.564 56.401C16.87 58.608-2.32 18.036.23 15.674c2.551-2.363 10.784 12.294 16.7 11.592 5.915-.701 38.08-28.405 44.854-22.051 6.775 6.354-17.526 48.979-31.22 51.186z" fill="url(#paint0_linear)"/><path opacity=".57" fill-rule="evenodd" clip-rule="evenodd" d="M28.523 54.506C17.013 56.362.883 22.249 3.027 20.262c2.144-1.986 9.064 10.337 14.036 9.747 4.972-.59 32.006-23.883 37.7-18.54 5.695 5.342-14.73 41.181-26.24 43.037z" fill="#fff"/><path opacity=".452" fill-rule="evenodd" clip-rule="evenodd" d="M31.119 54.246C17.424 56.453-1.766 15.88.785 13.519c2.55-2.363 10.783 12.294 16.699 11.592 5.915-.702 38.08-28.406 44.855-22.052 6.774 6.354-17.526 48.98-31.22 51.187z" fill="url(#paint1_linear)"/><path opacity=".452" fill-rule="evenodd" clip-rule="evenodd" d="M31.611 52.645C17.917 54.852-1.273 14.28 1.277 11.917c2.551-2.362 10.784 12.295 16.7 11.593 5.915-.702 38.08-28.406 44.854-22.052 6.775 6.354-17.525 48.98-31.22 51.187z" fill="url(#paint2_linear)"/><defs><linearGradient id="paint0_linear" x1="31.476" y1="4.268" x2="31.476" y2="56.488" gradientUnits="userSpaceOnUse"><stop stop-color="#6B3BD8"/><stop offset="1" stop-color="#2BBDEF"/></linearGradient><linearGradient id="paint1_linear" x1="32.031" y1="2.113" x2="32.031" y2="54.333" gradientUnits="userSpaceOnUse"><stop stop-color="#6B3BD8"/><stop offset="1" stop-color="#2BBDEF"/></linearGradient><linearGradient id="paint2_linear" x1="32.524" y1=".512" x2="32.524" y2="52.732" gradientUnits="userSpaceOnUse"><stop stop-color="#6B3BD8"/><stop offset="1" stop-color="#2BBDEF"/></linearGradient></defs></svg>