<svg width="11" height="14" fill="none" xmlns="http://www.w3.org/2000/svg"><path d="M5.207 13.957c3.37 0 5.613-2.25 5.613-5.625 0-5.496-4.763-7.816-7.974-7.816-.78 0-1.319.34-1.319.955 0 .234.106.486.276.685.79.967 1.336 1.74 1.377 2.701-.44-.837-.885-1.054-1.313-1.054-.398 0-.668.252-.668.709 0 .281.041.48.041.879C1.24 6.85.174 7.26.174 9.586c0 2.62 2.015 4.371 5.033 4.371zm.164-2.39c-1.078 0-1.781-.627-1.781-1.57 0-.962.656-1.202.738-2.058.012-.128.152-.216.281-.1.217.23.375.516.487.915.27-.58.263-1.248.129-1.98-.036-.17.117-.253.252-.194 1.2.498 1.91 1.664 1.91 2.936 0 1.2-.774 2.05-2.016 2.05z" fill="url(#paint0_linear)"/><defs><linearGradient id="paint0_linear" x1="5.5" y1="-1" x2="5.5" y2="17" gradientUnits="userSpaceOnUse"><stop stop-color="#FD1010"/><stop offset="1" stop-color="#EF892B"/></linearGradient></defs></svg>