<svg width="17" height="16" fill="none" xmlns="http://www.w3.org/2000/svg"><rect x=".133" width="16.725" height="16" rx="2" fill="#517FF4"/><path d="M6.064 6.508h4.86c.331 0 .498-.196.498-.525v-.266c0-.328-.167-.525-.498-.525h-4.86c-.314 0-.498.197-.498.525v.266c0 .329.167.525.498.525zm.823 4.078h3.214c.577 0 .885-.299.885-.873V6.909H6.002v2.804c0 .577.308.873.885.873zm.642-2.62c-.123 0-.208-.084-.208-.213v-.09c0-.13.085-.212.208-.212h1.933c.123 0 .211.082.211.211v.09c0 .13-.088.215-.21.215H7.528z" fill="#fff"/></svg>