<svg width="16" height="16" fill="none" xmlns="http://www.w3.org/2000/svg"><rect width="16" height="16" rx="2" fill="#517FF4"/><path d="M8.598 12.46c.28 0 .48-.241.625-.616L11.78 5.16c.07-.18.11-.34.11-.473 0-.253-.157-.41-.41-.41-.133 0-.293.04-.473.11L4.289 6.96c-.328.125-.582.324-.582.61 0 .359.273.48.648.593l2.11.64c.25.079.39.071.558-.085l4.286-4.004c.05-.047.109-.04.148-.004.04.039.043.098-.004.148L7.465 9.16c-.152.16-.164.293-.09.555l.621 2.062c.117.395.238.684.602.684z" fill="#fff"/></svg>