<svg width="14" height="14" viewBox="0 0 14 14" fill="none" xmlns="http://www.w3.org/2000/svg">
<path d="M4.36783 13.6777C4.6608 13.6777 4.90104 13.5664 5.2526 13.2559L7.54947 11.2578H10.9772C12.7936 11.2578 13.9713 10.0742 13.9713 8.26367V3.49414C13.9713 1.68359 12.7936 0.5 10.9772 0.5H3.76432C1.94791 0.5 0.770176 1.68359 0.770176 3.49414V8.26367C0.770176 10.0742 2.0651 11.2578 3.58854 11.2578H3.68229V12.9277C3.68229 13.3906 3.94596 13.6777 4.36783 13.6777ZM4.48502 6.93945C3.89322 6.93945 3.42447 6.45898 3.42447 5.87891C3.42447 5.29297 3.89322 4.81836 4.48502 4.81836C5.07096 4.81836 5.53971 5.29297 5.53971 5.87891C5.53971 6.45898 5.07096 6.93945 4.48502 6.93945ZM7.37955 6.93945C6.79361 6.93945 6.319 6.45898 6.319 5.87891C6.319 5.29297 6.79361 4.81836 7.37955 4.81836C7.96549 4.81836 8.4401 5.29297 8.4401 5.87891C8.4401 6.45898 7.96549 6.93945 7.37955 6.93945ZM10.2741 6.93945C9.68814 6.93945 9.21939 6.45898 9.21939 5.87891C9.21939 5.29297 9.68814 4.81836 10.2741 4.81836C10.8659 4.81836 11.3346 5.29297 11.3346 5.87891C11.3346 6.45898 10.8659 6.93945 10.2741 6.93945Z" fill="#659DEA"/>
</svg>
