<svg width="18" height="34" viewBox="0 0 18 34" fill="none" xmlns="http://www.w3.org/2000/svg">
<path d="M0.960985 18.1084H4.68793V33.4516C4.68793 33.7545 4.93339 34 5.23632 34H11.5555C11.8584 34 12.1039 33.7545 12.1039 33.4516V18.1807H16.3883C16.6669 18.1807 16.9013 17.9716 16.9331 17.6949L17.5838 12.0463C17.6017 11.8909 17.5524 11.7353 17.4485 11.6187C17.3444 11.502 17.1954 11.4352 17.0391 11.4352H12.1041V7.89436C12.1041 6.82698 12.6788 6.28572 13.8124 6.28572C13.974 6.28572 17.0391 6.28572 17.0391 6.28572C17.3421 6.28572 17.5875 6.04015 17.5875 5.73734V0.552445C17.5875 0.249516 17.3421 0.00405806 17.0391 0.00405806H12.5923C12.5609 0.00252258 12.4913 0 12.3886 0C11.617 0 8.93508 0.151464 6.81655 2.10043C4.46924 4.2602 4.79553 6.84617 4.87351 7.29454V11.4351H0.960985C0.658056 11.4351 0.412598 11.6805 0.412598 11.9835V17.5599C0.412598 17.8628 0.658056 18.1084 0.960985 18.1084Z" fill="url(#paint0_linear)"/>
<defs>
<linearGradient id="paint0_linear" x1="9.00006" y1="0" x2="9.00006" y2="34" gradientUnits="userSpaceOnUse">
<stop stop-color="#6546DA"/>
<stop offset="1" stop-color="#59B5EE"/>
</linearGradient>
</defs>
</svg>
