<svg width="14" height="10" viewBox="0 0 14 10" fill="none" xmlns="http://www.w3.org/2000/svg">
<path d="M1.49609 2.06836C2.04688 2.06836 2.49805 1.61719 2.49805 1.06641C2.49805 0.515625 2.04688 0.0585938 1.49609 0.0585938C0.945312 0.0585938 0.494141 0.515625 0.494141 1.06641C0.494141 1.61719 0.945312 2.06836 1.49609 2.06836ZM4.54883 1.79297H12.418C12.8223 1.79297 13.1445 1.4707 13.1445 1.06641C13.1445 0.662109 12.8281 0.339844 12.418 0.339844H4.54883C4.14453 0.339844 3.82227 0.65625 3.82227 1.06641C3.82227 1.4707 4.13867 1.79297 4.54883 1.79297ZM1.49609 5.77734C2.04688 5.77734 2.49805 5.32617 2.49805 4.77539C2.49805 4.22461 2.04688 3.77344 1.49609 3.77344C0.945312 3.77344 0.494141 4.22461 0.494141 4.77539C0.494141 5.32617 0.945312 5.77734 1.49609 5.77734ZM4.54883 5.50195H12.418C12.8223 5.50195 13.1445 5.18555 13.1445 4.77539C13.1445 4.37109 12.8281 4.04883 12.418 4.04883H4.54883C4.14453 4.04883 3.82227 4.36523 3.82227 4.77539C3.82227 5.17969 4.13867 5.50195 4.54883 5.50195ZM1.49609 9.49219C2.04688 9.49219 2.49805 9.04102 2.49805 8.49023C2.49805 7.93945 2.04688 7.48242 1.49609 7.48242C0.945312 7.48242 0.494141 7.93945 0.494141 8.49023C0.494141 9.04102 0.945312 9.49219 1.49609 9.49219ZM4.54883 9.2168H12.418C12.8223 9.2168 13.1445 8.89453 13.1445 8.49023C13.1445 8.08594 12.8281 7.76367 12.418 7.76367H4.54883C4.14453 7.76367 3.82227 8.08008 3.82227 8.49023C3.82227 8.89453 4.13867 9.2168 4.54883 9.2168Z" fill="black"/>
</svg>
