<svg width="11" height="6" viewBox="0 0 11 6" fill="none" xmlns="http://www.w3.org/2000/svg">
<path d="M5.49155 6C5.40125 6.00013 5.31182 5.98296 5.2284 5.94948C5.14498 5.916 5.06922 5.86688 5.00549 5.80493L0.192989 1.14463C0.0677557 1.01907 -0.00154044 0.850894 2.59784e-05 0.676335C0.00159239 0.501775 0.073896 0.334795 0.201364 0.211358C0.328832 0.087921 0.501266 0.0179038 0.681526 0.0163869C0.861786 0.01487 1.03545 0.081975 1.16511 0.203248L5.49155 4.39253L9.81799 0.203248C9.88141 0.139661 9.95727 0.0889425 10.0411 0.0540508C10.125 0.0191591 10.2152 0.000793299 10.3065 2.5137e-05C10.3978 -0.000743025 10.4883 0.0161016 10.5728 0.0495765C10.6573 0.0830514 10.7341 0.132486 10.7986 0.194996C10.8632 0.257506 10.9142 0.331839 10.9488 0.413658C10.9834 0.495477 11.0008 0.583144 11 0.671543C10.9992 0.759942 10.9802 0.847302 10.9442 0.928527C10.9082 1.00975 10.8558 1.08322 10.7901 1.14463L5.97761 5.80493C5.91388 5.86688 5.83812 5.916 5.7547 5.94948C5.67128 5.98296 5.58185 6.00013 5.49155 6Z" fill="#6E6E6E"/>
</svg>
