<svg width="10" height="11" viewBox="0 0 10 11" fill="none" xmlns="http://www.w3.org/2000/svg">
<path d="M4.35449 8.67285C5.06738 8.67285 5.73633 8.48242 6.32227 8.15039L8.16309 9.99609C8.35352 10.1865 8.61719 10.2793 8.88086 10.2793C9.45215 10.2793 9.87695 9.83984 9.87695 9.27832C9.87695 9.01953 9.78906 8.76562 9.59375 8.57031L7.76758 6.74414C8.13867 6.13867 8.35352 5.43066 8.35352 4.67383C8.35352 2.48145 6.55176 0.674805 4.35449 0.674805C2.16211 0.674805 0.355469 2.47656 0.355469 4.67383C0.355469 6.87109 2.15723 8.67285 4.35449 8.67285ZM4.35449 7.2666C2.92383 7.2666 1.76172 6.10449 1.76172 4.67383C1.76172 3.24805 2.92383 2.08105 4.35449 2.08105C5.78516 2.08105 6.94727 3.24805 6.94727 4.67383C6.94727 6.10449 5.78516 7.2666 4.35449 7.2666Z" fill="#659DEA"/>
</svg>
