<svg width="15" height="12" viewBox="0 0 15 12" fill="none" xmlns="http://www.w3.org/2000/svg">
<path d="M2.58594 11.4004H12.4062C13.7539 11.4004 14.498 10.6562 14.498 9.32031V2.23633C14.498 0.894531 13.7539 0.15625 12.4062 0.15625H2.58594C1.23828 0.15625 0.494141 0.894531 0.494141 2.23633V9.32031C0.494141 10.6621 1.23828 11.4004 2.58594 11.4004ZM2.76758 9.83008C2.30469 9.83008 2.06445 9.60742 2.06445 9.12109V2.43555C2.06445 1.94336 2.30469 1.72656 2.76758 1.72656H12.2246C12.6816 1.72656 12.9277 1.94336 12.9277 2.43555V9.12109C12.9277 9.60742 12.6816 9.83008 12.2246 9.83008H2.76758Z" fill="black"/>
</svg>
